<svg xmlns="http://www.w3.org/2000/svg" fill-rule="evenodd" stroke-linejoin="round" stroke-miterlimit="2" clip-rule="evenodd" viewBox="0 0 32 32" id="ReceptionDesk"><rect width="32" height="32" fill="none"></rect><path d="M27.759 9c0-.276-.224-.5-.5-.5l-8.259 0c-.276 0-.5.224-.5.5l0 5c0 .276.224.5.5.5l8.259 0c.276 0 .5-.224.5-.5l0-5zM3 17.5l26 0c.276 0 .5-.224.5-.5 0-.276-.224-.5-.5-.5l-26 0c-.276 0-.5.224-.5.5 0 .276.224.5.5.5z" fill="#007cb2" class="color000000 svgShape"></path><path d="M27.759,17c-0,-0.276 -0.224,-0.5 -0.5,-0.5l-22.018,-0c-0.276,-0 -0.5,0.224 -0.5,0.5l0,12c0,0.276 0.224,0.5 0.5,0.5l22.018,0c0.276,0 0.5,-0.224 0.5,-0.5l-0,-12Zm-11.509,1.5c-2.484,-0 -4.5,2.016 -4.5,4.5c-0,2.484 2.016,4.5 4.5,4.5c2.484,0 4.5,-2.016 4.5,-4.5c0,-2.484 -2.016,-4.5 -4.5,-4.5Zm0,1c1.932,-0 3.5,1.568 3.5,3.5c0,1.932 -1.568,3.5 -3.5,3.5c-1.932,0 -3.5,-1.568 -3.5,-3.5c-0,-1.932 1.568,-3.5 3.5,-3.5Zm0.5,3l0,-1.5c-0,-0.276 -0.224,-0.5 -0.5,-0.5c-0.276,0 -0.5,0.224 -0.5,0.5l0,1.5l-1.5,-0c-0.276,0 -0.5,0.224 -0.5,0.5c0,0.276 0.224,0.5 0.5,0.5l1.5,-0l0,1.5c-0,0.276 0.224,0.5 0.5,0.5c0.276,0 0.5,-0.224 0.5,-0.5l0,-1.5l1.5,-0c0.276,0 0.5,-0.224 0.5,-0.5c0,-0.276 -0.224,-0.5 -0.5,-0.5l-1.5,-0Z" fill="#007cb2" class="color000000 svgShape"></path><circle cx="11.5" cy="5.5" r="3" fill="#007cb2" class="color000000 svgShape"></circle><path d="M7.5 15.75l8 0 0-3.75c0-1.381-1.119-2.5-2.5-2.5l-3 0c-1.381 0-2.5 1.119-2.5 2.5l0 3.75zM21.148 15.75l3.962 0-.636-1.908c-.068-.204-.259-.342-.474-.342l-1.741 0c-.216 0-.407.138-.475.342l-.636 1.908z" fill="#007cb2" class="color000000 svgShape"></path></svg>