<svg xmlns="http://www.w3.org/2000/svg" viewBox="0 0 64 64" id="Consultation"><path d="M58.38603,50.01996c-1.24207-3.8667-4.25226-6.94104-8.07172-8.28381,6.65735-4.24341,3.70111-14.69562-4.2984-14.73615-7.99994,.04083-10.95532,10.49475-4.29773,14.73639-3.81281,1.34045-6.82068,4.40613-8.06213,8.26361h-.64001c.45093-6.04498-2.21167-11.32361-7.57996-13.82001,6.8089-5.12006,3.20935-16.15717-5.42017-16.17999-8.62952,.02307-12.22882,11.06158-5.41986,16.17999-5.37189,2.49994-8.02948,7.77386-7.58002,13.82001h-1c-2.20996,0-4,1.78998-4,4s1.79004,4,4,4H58.01603c5.04974-.11926,5.39539-7.40698,.37-7.98004ZM13.01603,29c0-3.85999,3.14001-7,7-7,7.50073,.0766,9.64545,10.1944,2.94989,13.33997-4.41595,2.20032-10.05194-1.28766-9.94989-6.33997Zm-4,19c0-4.98999,3.34003-9.22003,7.90002-10.56,.57001,.21997,1.16998,.37,1.77997,.46997l-2.63995,8.79999c-.09003,.31-.03003,.63,.15997,.89001,.19,.25,.47998,.40002,.79999,.40002h6c.32001,0,.60999-.15002,.79999-.40002,.19-.26001,.25-.58002,.16003-.89001l-2.64001-8.79999c.60999-.09998,1.21002-.25,1.78003-.46997,4.56,1.33997,7.89996,5.57001,7.89996,10.56v2H9.01603v-2Zm24,6v2H6.01603c-1.09998,0-2-.90002-2-2,0-1.10004,.90002-2,2-2h27.15002c-.10004,.65997-.15002,1.32001-.15002,2Zm13-13c-3.30859,0-6-2.69141-6-6,.28149-7.9411,11.71973-7.93909,12,.00006,0,3.30853-2.69141,5.99994-6,5.99994Zm13,14.72998c-.00696-1.04706,.04614-2.51288-.13-3.52997,1.4137,.60962,1.49786,2.82092,.13,3.52997Z" fill="#007cb2" class="color000000 svgShape"></path><path d="M55.01603 6h-18c-2.20557 0-4 1.79395-4 4v8c0 2.20605 1.79443 4 4 4h6.03369l2.10889 3.51465c.18066.30078.50635.48535.85742.48535s.67676-.18457.85742-.48535l2.10889-3.51465h6.03369c2.20557 0 4-1.79395 4-4V10c0-2.20605-1.79443-4-4-4zm-9 14c-1.31372-.02521-1.31348-1.97498 0-2 1.3136.02545 1.31342 1.97473 0 2zm1.99994-5c-.55121 0-.99994.44824-.99994 1-.02087 1.31268-1.97833 1.31561-2-.00006 0-1.65424 1.3457-2.99994 3-2.99994 1.31366-.02289 1.31433-1.97705 0-2h-2c-1.31323-.02063-1.31494-1.97876.00006-2-.00006 0 1.99994 0 1.99994 0 3.95599.10419 3.9552 5.89655-.00006 6zM19.01603 15v2c.02191 1.3139 1.97803 1.31482 2 0v-2c-.02197-1.31415-1.97803-1.3147-2 0zM14.28855 16.18652c-.00006 0 .68402 1.87891.68402 1.87891.47449 1.23352 2.30774.55066 1.87891-.68365 0 .00006-.68408-1.87885-.68408-1.87885-.46887-1.22766-2.30792-.55927-1.87885.68359zM23.86467 15.50293l-.68408 1.87891c-.42841 1.23395 1.40405 1.91766 1.87891.68353 0 .00006.68408-1.87885.68408-1.87885.42896-1.242-1.40979-1.91193-1.87891-.68359z" fill="#007cb2" class="color000000 svgShape"></path></svg>